# xmcd
#
# Track frame offsets: 
#        194
#        19264
#        34913
#        54671
#        76214
#
# Disc length: 1234 seconds
#
# Revision: 0
# Processed by: cddbd v1.5.2PL0 Copyright (c) Steve Scherf et al.
# Submitted via: ExactAudioCopy v0.99pb5
#
DISCID=3704d005
DTITLE=Yuna - Yuna EP
DYEAR=2008
DGENRE=Blues
TTITLE0=Backpacking Around Europe
TTITLE1=After Midnight
TTITLE2=Dan Sebenarnya
TTITLE3=Blue Sands
TTITLE4=Deeper Conversation
EXTD=
EXTT0=
EXTT1=
EXTT2=
EXTT3=
EXTT4=
PLAYORDER=
